<svg width="76" height="34" viewBox="0 0 76 34" fill="none" xmlns="http://www.w3.org/2000/svg">
<g filter="url(#filter0_d_2815_1031)">
<rect x="1.83453" y="1.37253" width="71.8111" height="30.0889" rx="6.54445" fill="white"/>
<rect x="2.24356" y="1.78156" width="70.9931" height="29.2708" rx="6.13542" stroke="#D0D5DD" stroke-width="0.818056"/>
<path d="M20.9252 11.5877V19.917H19.7702L15.5364 13.8083H15.4591V19.917H14.2024V11.5877H15.3656L19.6034 17.7045H19.6807V11.5877H20.9252ZM25.3532 20.0431C24.7377 20.0431 24.2077 19.9116 23.763 19.6486C23.3211 19.3828 22.9794 19.01 22.7381 18.5301C22.4995 18.0475 22.3802 17.4822 22.3802 16.8342C22.3802 16.1943 22.4995 15.6303 22.7381 15.1423C22.9794 14.6542 23.3156 14.2733 23.7467 13.9994C24.1806 13.7256 24.6876 13.5887 25.2678 13.5887C25.6203 13.5887 25.9619 13.647 26.2927 13.7635C26.6235 13.8801 26.9204 14.0632 27.1834 14.3126C27.4464 14.562 27.6538 14.8861 27.8056 15.2846C27.9575 15.6805 28.0334 16.1617 28.0334 16.7284V17.1595H23.0675V16.2485H26.8418C26.8418 15.9286 26.7767 15.6452 26.6465 15.3985C26.5164 15.1491 26.3334 14.9525 26.0975 14.8088C25.8643 14.6651 25.5905 14.5932 25.2759 14.5932C24.9343 14.5932 24.6361 14.6773 24.3812 14.8454C24.129 15.0108 23.9338 15.2277 23.7955 15.4961C23.66 15.7618 23.5922 16.0506 23.5922 16.3624V17.0741C23.5922 17.4917 23.6654 17.8469 23.8118 18.1397C23.9609 18.4325 24.1684 18.6562 24.4341 18.8107C24.6998 18.9626 25.0102 19.0385 25.3654 19.0385C25.5959 19.0385 25.806 19.006 25.9958 18.9409C26.1856 18.8731 26.3496 18.7728 26.4879 18.6399C26.6262 18.5071 26.7319 18.343 26.8051 18.1478L27.9561 18.3552C27.8639 18.6942 27.6985 18.991 27.4599 19.2459C27.2241 19.4981 26.9272 19.6946 26.5693 19.8356C26.2141 19.9739 25.8087 20.0431 25.3532 20.0431ZM30.1971 13.67L31.5758 16.1021L32.9667 13.67H34.2966L32.3485 16.7935L34.3129 19.917H32.983L31.5758 17.5825L30.1727 19.917H28.8387L30.7827 16.7935L28.8631 13.67H30.1971ZM38.4613 13.67V14.6461H35.049V13.67H38.4613ZM35.9641 12.1733H37.1802V18.0827C37.1802 18.3186 37.2154 18.4962 37.2859 18.6155C37.3564 18.7321 37.4472 18.8121 37.5584 18.8555C37.6723 18.8962 37.7956 18.9165 37.9285 18.9165C38.0261 18.9165 38.1115 18.9097 38.1847 18.8962C38.2579 18.8826 38.3149 18.8717 38.3555 18.8636L38.5752 19.8682C38.5047 19.8953 38.4043 19.9224 38.2742 19.9495C38.144 19.9793 37.9814 19.9956 37.7862 19.9983C37.4662 20.0037 37.168 19.9468 36.8914 19.8275C36.6148 19.7082 36.3912 19.5238 36.2203 19.2744C36.0495 19.0249 35.9641 18.7118 35.9641 18.3349V12.1733Z" fill="#344054"/>
<path d="M49.2403 16.417H58.7843M58.7843 16.417L54.0123 11.645M58.7843 16.417L54.0123 21.189" stroke="#344054" stroke-width="1.36615" stroke-linecap="round" stroke-linejoin="round"/>
</g>
<defs>
<filter id="filter0_d_2815_1031" x="0.198422" y="0.554472" width="75.0833" height="33.3611" filterUnits="userSpaceOnUse" color-interpolation-filters="sRGB">
<feFlood flood-opacity="0" result="BackgroundImageFix"/>
<feColorMatrix in="SourceAlpha" type="matrix" values="0 0 0 0 0 0 0 0 0 0 0 0 0 0 0 0 0 0 127 0" result="hardAlpha"/>
<feOffset dy="0.818056"/>
<feGaussianBlur stdDeviation="0.818056"/>
<feColorMatrix type="matrix" values="0 0 0 0 0.0627451 0 0 0 0 0.0941176 0 0 0 0 0.156863 0 0 0 0.05 0"/>
<feBlend mode="normal" in2="BackgroundImageFix" result="effect1_dropShadow_2815_1031"/>
<feBlend mode="normal" in="SourceGraphic" in2="effect1_dropShadow_2815_1031" result="shape"/>
</filter>
</defs>
</svg>
