<svg width="32" height="10" viewBox="0 0 32 10" fill="none" xmlns="http://www.w3.org/2000/svg">
<path d="M2.57099 7.49197H0.259754V0.352579H2.6442C3.34373 0.352579 3.94449 0.495506 4.44648 0.781361C4.94847 1.06489 5.33309 1.47276 5.60036 2.00496C5.86994 2.53484 6.00474 3.17046 6.00474 3.91182C6.00474 4.65551 5.86878 5.29461 5.59687 5.82914C5.32728 6.36366 4.93685 6.77501 4.42556 7.06319C3.91428 7.34905 3.29609 7.49197 2.57099 7.49197ZM1.33694 6.55075H2.51173C3.05555 6.55075 3.50757 6.44849 3.8678 6.24397C4.22802 6.03714 4.49761 5.7385 4.67656 5.34806C4.85551 4.9553 4.94498 4.47656 4.94498 3.91182C4.94498 3.35173 4.85551 2.87647 4.67656 2.48603C4.49993 2.0956 4.23616 1.79928 3.88523 1.59709C3.5343 1.3949 3.09855 1.29381 2.57797 1.29381H1.33694V6.55075ZM9.56833 7.60004C9.04078 7.60004 8.58643 7.48733 8.20529 7.2619C7.82648 7.03414 7.53365 6.71459 7.32681 6.30324C7.1223 5.88956 7.02004 5.405 7.02004 4.84956C7.02004 4.30109 7.1223 3.8177 7.32681 3.39937C7.53365 2.98105 7.82183 2.65452 8.19135 2.4198C8.56319 2.18507 8.99779 2.06771 9.49513 2.06771C9.79725 2.06771 10.0901 2.11767 10.3736 2.21761C10.6571 2.31754 10.9116 2.47441 11.137 2.68822C11.3625 2.90203 11.5403 3.17975 11.6704 3.52138C11.8006 3.86069 11.8656 4.2732 11.8656 4.75892V5.12844H7.60918V4.34757H10.8442C10.8442 4.07334 10.7884 3.83048 10.6769 3.61899C10.5653 3.40518 10.4085 3.23669 10.2063 3.11352C10.0064 2.99034 9.77168 2.92876 9.5021 2.92876C9.20927 2.92876 8.95363 3.0008 8.73517 3.14489C8.51904 3.28666 8.35171 3.47258 8.23318 3.70266C8.11698 3.93041 8.05888 4.17792 8.05888 4.44518V5.05524C8.05888 5.41314 8.12163 5.71758 8.24713 5.96858C8.37495 6.21957 8.55274 6.4113 8.78049 6.54377C9.00824 6.67392 9.27434 6.73899 9.57879 6.73899C9.77633 6.73899 9.95644 6.7111 10.1191 6.65533C10.2818 6.59723 10.4224 6.51124 10.5409 6.39736C10.6595 6.28348 10.7501 6.14288 10.8128 5.97555L11.7994 6.15334C11.7204 6.44384 11.5786 6.69832 11.3741 6.91678C11.1719 7.13291 10.9174 7.3014 10.6107 7.42225C10.3062 7.54078 9.95877 7.60004 9.56833 7.60004ZM17.0345 3.44469L16.0898 3.61202C16.0503 3.49117 15.9876 3.37613 15.9016 3.2669C15.8179 3.15767 15.704 3.0682 15.56 2.99848C15.4159 2.92876 15.2357 2.8939 15.0196 2.8939C14.7245 2.8939 14.4781 2.96013 14.2806 3.0926C14.083 3.22275 13.9843 3.39124 13.9843 3.59808C13.9843 3.77703 14.0505 3.92111 14.183 4.03034C14.3154 4.13957 14.5292 4.22905 14.8244 4.29877L15.675 4.49399C16.1677 4.60786 16.5349 4.78333 16.7766 5.02038C17.0183 5.25743 17.1391 5.56536 17.1391 5.94418C17.1391 6.26489 17.0462 6.55075 16.8602 6.80174C16.6766 7.05041 16.4198 7.24563 16.0898 7.38739C15.7621 7.52916 15.3822 7.60004 14.9499 7.60004C14.3503 7.60004 13.8611 7.47222 13.4823 7.21658C13.1035 6.95861 12.8711 6.59258 12.7851 6.11848L13.7925 5.96509C13.8553 6.22771 13.9843 6.42641 14.1795 6.5612C14.3747 6.69367 14.6292 6.75991 14.9429 6.75991C15.2846 6.75991 15.5576 6.68902 15.7621 6.54726C15.9667 6.40317 16.0689 6.22771 16.0689 6.02087C16.0689 5.85354 16.0062 5.71294 15.8807 5.59906C15.7575 5.48518 15.5681 5.39919 15.3124 5.34109L14.4061 5.14239C13.9064 5.02851 13.5369 4.84724 13.2975 4.59857C13.0605 4.3499 12.9419 4.03499 12.9419 3.65385C12.9419 3.33778 13.0303 3.06123 13.2069 2.82418C13.3835 2.58713 13.6275 2.40237 13.9389 2.2699C14.2504 2.1351 14.6071 2.06771 15.0092 2.06771C15.5878 2.06771 16.0433 2.1932 16.3757 2.4442C16.708 2.69287 16.9276 3.02637 17.0345 3.44469ZM18.2852 7.49197V2.13743H19.3275V7.49197H18.2852ZM18.8115 1.31124C18.6303 1.31124 18.4746 1.25081 18.3444 1.12996C18.2166 1.00679 18.1527 0.860378 18.1527 0.690724C18.1527 0.518747 18.2166 0.372333 18.3444 0.251484C18.4746 0.128311 18.6303 0.0667245 18.8115 0.0667245C18.9928 0.0667245 19.1474 0.128311 19.2752 0.251484C19.4053 0.372333 19.4704 0.518747 19.4704 0.690724C19.4704 0.860378 19.4053 1.00679 19.2752 1.12996C19.1474 1.25081 18.9928 1.31124 18.8115 1.31124ZM22.9747 9.61148C22.5494 9.61148 22.1834 9.55571 21.8766 9.44415C21.5722 9.3326 21.3235 9.18502 21.1306 9.00143C20.9377 8.81783 20.7936 8.6168 20.6984 8.39834L21.5943 8.02882C21.657 8.13108 21.7407 8.23915 21.8453 8.35302C21.9522 8.46922 22.0963 8.568 22.2775 8.64934C22.4611 8.73068 22.697 8.77135 22.9852 8.77135C23.3803 8.77135 23.7068 8.6749 23.9648 8.48201C24.2227 8.29144 24.3517 7.98699 24.3517 7.56867V6.51588H24.2855C24.2227 6.62976 24.1321 6.75642 24.0136 6.89586C23.8974 7.0353 23.737 7.15615 23.5325 7.25841C23.328 7.36067 23.0619 7.4118 22.7342 7.4118C22.3112 7.4118 21.9301 7.31302 21.5908 7.11548C21.2538 6.91562 20.9865 6.62163 20.789 6.23352C20.5938 5.84308 20.4962 5.36317 20.4962 4.79378C20.4962 4.2244 20.5926 3.73635 20.7855 3.32965C20.9807 2.92295 21.248 2.61153 21.5873 2.39539C21.9266 2.17694 22.3112 2.06771 22.7412 2.06771C23.0735 2.06771 23.3419 2.12348 23.5465 2.23504C23.751 2.34427 23.9102 2.47209 24.024 2.6185C24.1402 2.76491 24.2297 2.8939 24.2925 3.00545H24.3692V2.13743H25.3906V7.6105C25.3906 8.07066 25.2837 8.44831 25.0698 8.74346C24.856 9.03861 24.5667 9.25707 24.2018 9.39883C23.8393 9.5406 23.4303 9.61148 22.9747 9.61148ZM22.9643 6.54726C23.2641 6.54726 23.5174 6.47754 23.7242 6.3381C23.9334 6.19633 24.0914 5.99414 24.1983 5.73153C24.3076 5.46659 24.3622 5.14936 24.3622 4.77984C24.3622 4.41962 24.3087 4.10239 24.2018 3.82815C24.0949 3.55392 23.938 3.34011 23.7312 3.18672C23.5244 3.03101 23.2687 2.95316 22.9643 2.95316C22.6505 2.95316 22.3891 3.0345 22.1799 3.19718C21.9708 3.35754 21.8127 3.576 21.7058 3.85256C21.6012 4.12911 21.549 4.43821 21.549 4.77984C21.549 5.13077 21.6024 5.4387 21.7093 5.70364C21.8162 5.96858 21.9743 6.17542 22.1834 6.32415C22.3949 6.47289 22.6552 6.54726 22.9643 6.54726ZM27.8308 4.31271V7.49197H26.7885V2.13743H27.789V3.00894H27.8552C27.9784 2.72541 28.1713 2.49765 28.4339 2.32567C28.6988 2.1537 29.0323 2.06771 29.4344 2.06771C29.7992 2.06771 30.1188 2.1444 30.393 2.29779C30.6673 2.44885 30.8799 2.67428 31.031 2.97408C31.182 3.27387 31.2576 3.64456 31.2576 4.08612V7.49197H30.2152V4.21162C30.2152 3.82351 30.1141 3.52022 29.9119 3.30176C29.7098 3.08098 29.432 2.97059 29.0788 2.97059C28.8371 2.97059 28.6221 3.02288 28.4339 3.12746C28.2479 3.23204 28.1004 3.38543 27.9911 3.58762C27.8842 3.78748 27.8308 4.02918 27.8308 4.31271Z" fill="#6A1039"/>
</svg>
