<svg width="46" height="11" viewBox="0 0 46 11" fill="none" xmlns="http://www.w3.org/2000/svg">
<path d="M0.0409415 0.852549H1.3482L3.6211 6.40231H3.70476L5.97766 0.852549H7.28492V7.99194H6.26002V2.82564H6.19379L4.08823 7.98149H3.23763L1.13207 2.82216H1.06584V7.99194H0.0409415V0.852549ZM10.3256 8.11047C9.9863 8.11047 9.67953 8.04772 9.4053 7.92222C9.13106 7.7944 8.91377 7.60964 8.75341 7.36794C8.59537 7.12625 8.51636 6.82993 8.51636 6.47901C8.51636 6.17688 8.57446 5.92821 8.69066 5.73299C8.80686 5.53778 8.96373 5.38323 9.16127 5.26935C9.35882 5.15547 9.5796 5.06949 9.82362 5.01139C10.0676 4.95329 10.3163 4.90913 10.5696 4.87892C10.8903 4.84173 11.1506 4.81152 11.3505 4.78828C11.5504 4.76272 11.6956 4.72204 11.7863 4.66627C11.8769 4.61049 11.9222 4.51985 11.9222 4.39436V4.36996C11.9222 4.06551 11.8362 3.82962 11.6642 3.66229C11.4946 3.49496 11.2413 3.4113 10.9043 3.4113C10.5534 3.4113 10.2768 3.48915 10.0746 3.64486C9.87475 3.79825 9.73647 3.96906 9.65978 4.15731L8.6802 3.9342C8.7964 3.60884 8.96606 3.34622 9.18916 3.14636C9.41459 2.94417 9.67372 2.79775 9.96655 2.70712C10.2594 2.61416 10.5673 2.56768 10.8903 2.56768C11.1042 2.56768 11.3307 2.59324 11.5701 2.64437C11.8118 2.69317 12.0373 2.78381 12.2464 2.91628C12.4579 3.04875 12.631 3.23816 12.7658 3.4845C12.9006 3.72853 12.968 4.04575 12.968 4.43619V7.99194H11.9501V7.25988H11.9083C11.8409 7.39467 11.7398 7.52714 11.605 7.65728C11.4702 7.78743 11.2971 7.8955 11.0856 7.98149C10.8741 8.06747 10.6208 8.11047 10.3256 8.11047ZM10.5522 7.27382C10.8404 7.27382 11.0867 7.21688 11.2912 7.10301C11.4981 6.98913 11.6549 6.84039 11.7619 6.65679C11.8711 6.47087 11.9257 6.27217 11.9257 6.06068V5.37045C11.8885 5.40763 11.8165 5.44249 11.7096 5.47503C11.605 5.50524 11.4853 5.53197 11.3505 5.55521C11.2157 5.57612 11.0844 5.59588 10.9566 5.61447C10.8288 5.63074 10.7219 5.64468 10.6359 5.6563C10.4337 5.68187 10.2489 5.72486 10.0816 5.78528C9.91658 5.84571 9.78411 5.93286 9.68418 6.04674C9.58657 6.15829 9.53777 6.30703 9.53777 6.49295C9.53777 6.75092 9.63305 6.94613 9.82362 7.0786C10.0142 7.20875 10.2571 7.27382 10.5522 7.27382ZM14.3563 7.99194V2.6374H15.3638V3.48799H15.4196C15.5172 3.19981 15.6892 2.97322 15.9355 2.80821C16.1842 2.64088 16.4654 2.55722 16.7791 2.55722C16.8442 2.55722 16.9209 2.55954 17.0092 2.56419C17.0998 2.56884 17.1707 2.57465 17.2219 2.58162V3.57863C17.18 3.56701 17.1057 3.55422 16.9987 3.54028C16.8918 3.52401 16.7849 3.51588 16.678 3.51588C16.4317 3.51588 16.2121 3.56817 16.0192 3.67275C15.8286 3.77501 15.6775 3.91793 15.566 4.10153C15.4544 4.2828 15.3987 4.48964 15.3987 4.72204V7.99194H14.3563ZM19.0825 6.17572L19.0756 4.90332H19.2568L21.3903 2.6374H22.6383L20.205 5.21706H20.0412L19.0825 6.17572ZM18.1239 7.99194V0.852549H19.1662V7.99194H18.1239ZM21.5053 7.99194L19.588 5.44714L20.3061 4.71856L22.7847 7.99194H21.5053ZM25.6755 8.10001C25.1479 8.10001 24.6936 7.9873 24.3124 7.76187C23.9336 7.53411 23.6408 7.21456 23.434 6.80321C23.2294 6.38953 23.1272 5.90497 23.1272 5.34953C23.1272 4.80106 23.2294 4.31766 23.434 3.89934C23.6408 3.48102 23.929 3.15449 24.2985 2.91977C24.6703 2.68504 25.1049 2.56768 25.6023 2.56768C25.9044 2.56768 26.1972 2.61764 26.4808 2.71758C26.7643 2.81751 27.0188 2.97438 27.2442 3.18819C27.4696 3.402 27.6474 3.67972 27.7776 4.02135C27.9077 4.36066 27.9728 4.77317 27.9728 5.25889V5.62841H23.7163V4.84754H26.9514C26.9514 4.57331 26.8956 4.33045 26.784 4.11896C26.6725 3.90515 26.5156 3.73666 26.3134 3.61349C26.1136 3.49031 25.8788 3.42873 25.6092 3.42873C25.3164 3.42873 25.0608 3.50077 24.8423 3.64486C24.6262 3.78663 24.4589 3.97255 24.3403 4.20263C24.2241 4.43038 24.166 4.67789 24.166 4.94515V5.55521C24.166 5.91311 24.2288 6.21755 24.3543 6.46855C24.4821 6.71954 24.6599 6.91127 24.8876 7.04374C25.1154 7.17389 25.3815 7.23896 25.6859 7.23896C25.8835 7.23896 26.0636 7.21107 26.2263 7.1553C26.389 7.09719 26.5296 7.01121 26.6481 6.89733C26.7666 6.78345 26.8572 6.64285 26.92 6.47552L27.9065 6.65331C27.8275 6.94381 27.6858 7.19829 27.4812 7.41675C27.2791 7.63288 27.0246 7.80137 26.7178 7.92222C26.4134 8.04075 26.0659 8.10001 25.6755 8.10001ZM31.6288 2.6374V3.47405H28.704V2.6374H31.6288ZM29.4883 1.35454H30.5307V6.41974C30.5307 6.62193 30.5609 6.77416 30.6213 6.87641C30.6817 6.97635 30.7596 7.0449 30.8549 7.08209C30.9525 7.11695 31.0582 7.13438 31.1721 7.13438C31.2557 7.13438 31.329 7.12857 31.3917 7.11695C31.4545 7.10533 31.5033 7.09603 31.5381 7.08906L31.7264 7.95011C31.6659 7.97335 31.5799 7.99659 31.4684 8.01983C31.3568 8.0454 31.2174 8.05934 31.0501 8.06166C30.7758 8.06631 30.5202 8.01751 30.2831 7.91525C30.0461 7.81299 29.8544 7.65496 29.7079 7.44115C29.5615 7.22734 29.4883 6.95892 29.4883 6.63588V1.35454ZM32.7818 7.99194V2.6374H33.8241V7.99194H32.7818ZM33.3081 1.81121C33.1269 1.81121 32.9712 1.75078 32.841 1.62993C32.7132 1.50676 32.6493 1.36035 32.6493 1.19069C32.6493 1.01872 32.7132 0.872303 32.841 0.751453C32.9712 0.62828 33.1269 0.566694 33.3081 0.566694C33.4894 0.566694 33.644 0.62828 33.7718 0.751453C33.9019 0.872303 33.967 1.01872 33.967 1.19069C33.967 1.36035 33.9019 1.50676 33.7718 1.62993C33.644 1.75078 33.4894 1.81121 33.3081 1.81121ZM36.2687 4.81268V7.99194H35.2263V2.6374H36.2268V3.50891H36.2931C36.4162 3.22537 36.6091 2.99762 36.8717 2.82564C37.1367 2.65367 37.4702 2.56768 37.8722 2.56768C38.2371 2.56768 38.5567 2.64437 38.8309 2.79775C39.1051 2.94882 39.3178 3.17425 39.4688 3.47405C39.6199 3.77384 39.6954 4.14453 39.6954 4.58609V7.99194H38.6531V4.71159C38.6531 4.32348 38.552 4.02019 38.3498 3.80173C38.1476 3.58095 37.8699 3.47056 37.5167 3.47056C37.275 3.47056 37.06 3.52285 36.8717 3.62743C36.6858 3.73201 36.5382 3.8854 36.429 4.08759C36.3221 4.28745 36.2687 4.52915 36.2687 4.81268ZM43.3383 10.1115C42.913 10.1115 42.547 10.0557 42.2402 9.94412C41.9358 9.83257 41.6871 9.68499 41.4942 9.5014C41.3013 9.3178 41.1572 9.11677 41.062 8.89831L41.9579 8.52879C42.0206 8.63105 42.1043 8.73912 42.2089 8.85299C42.3158 8.96919 42.4599 9.06797 42.6411 9.14931C42.8247 9.23065 43.0606 9.27132 43.3488 9.27132C43.7439 9.27132 44.0704 9.17487 44.3284 8.98198C44.5863 8.79141 44.7153 8.48696 44.7153 8.06864V7.01585H44.6491C44.5863 7.12973 44.4957 7.25639 44.3772 7.39583C44.261 7.53527 44.1006 7.65612 43.8961 7.75838C43.6916 7.86064 43.4255 7.91176 43.0978 7.91176C42.6748 7.91176 42.2937 7.81299 41.9544 7.61545C41.6174 7.41559 41.3501 7.1216 41.1526 6.73349C40.9574 6.34305 40.8598 5.86314 40.8598 5.29375C40.8598 4.72437 40.9562 4.23632 41.1491 3.82962C41.3443 3.42292 41.6116 3.1115 41.9509 2.89536C42.2902 2.67691 42.6748 2.56768 43.1048 2.56768C43.4371 2.56768 43.7055 2.62345 43.91 2.73501C44.1146 2.84424 44.2738 2.97206 44.3876 3.11847C44.5038 3.26488 44.5933 3.39387 44.6561 3.50542H44.7327V2.6374H45.7542V8.11047C45.7542 8.57062 45.6473 8.94828 45.4334 9.24343C45.2196 9.53858 44.9303 9.75704 44.5654 9.8988C44.2029 10.0406 43.7938 10.1115 43.3383 10.1115ZM43.3279 7.04723C43.6277 7.04723 43.881 6.97751 44.0878 6.83807C44.297 6.6963 44.455 6.49411 44.5619 6.2315C44.6712 5.96656 44.7258 5.64933 44.7258 5.27981C44.7258 4.91959 44.6723 4.60236 44.5654 4.32812C44.4585 4.05389 44.3016 3.84008 44.0948 3.68669C43.888 3.53098 43.6323 3.45313 43.3279 3.45313C43.0141 3.45313 42.7527 3.53447 42.5435 3.69715C42.3344 3.85751 42.1763 4.07597 42.0694 4.35253C41.9648 4.62908 41.9125 4.93818 41.9125 5.27981C41.9125 5.63074 41.966 5.93867 42.0729 6.20361C42.1798 6.46855 42.3378 6.67539 42.547 6.82412C42.7585 6.97286 43.0188 7.04723 43.3279 7.04723Z" fill="#091E42"/>
</svg>
