<svg width="12" height="12" viewBox="0 0 12 12" fill="none" xmlns="http://www.w3.org/2000/svg">
<path d="M10.9222 10.8849L9.04757 9.05205V9.05205L9.00363 8.98523C8.92194 8.90389 8.81023 8.85807 8.69363 8.85807C8.57704 8.85807 8.46533 8.90389 8.38363 8.98523V8.98523C6.79046 10.4468 4.33557 10.5263 2.64702 9.17088C0.958478 7.81548 0.560252 5.44581 1.71645 3.63344C2.87264 1.82106 5.22448 1.12837 7.21223 2.01476C9.19999 2.90114 10.2068 5.09155 9.56505 7.13331C9.51883 7.28081 9.55661 7.44122 9.66416 7.5541C9.7717 7.66699 9.93268 7.7152 10.0864 7.68059C10.2402 7.64597 10.3634 7.53378 10.4096 7.38628V7.38628C11.1768 4.96331 10.0181 2.35584 7.68303 1.25065C5.34796 0.145461 2.53731 0.874219 1.06929 2.96549C-0.398727 5.05677 -0.0835524 7.88295 1.81093 9.61579C3.70541 11.3486 6.61065 11.4681 8.64726 9.89687L10.3071 11.5197C10.4785 11.6866 10.7557 11.6866 10.9271 11.5197C11.0984 11.3504 11.0984 11.078 10.9271 10.9087V10.9087L10.9222 10.8849Z" fill="#667085"/>
</svg>
