<svg width="56" height="10" viewBox="0 0 56 10" fill="none" xmlns="http://www.w3.org/2000/svg">
<path d="M0.731768 7.69196V0.552561H5.20783V1.47985H1.80895V3.65513H4.97427V4.57893H1.80895V6.76467H5.24967V7.69196H0.731768ZM7.60535 4.51269V7.69196H6.56303V2.33741H7.56352V3.20892H7.62975C7.75293 2.92539 7.94582 2.69763 8.20844 2.52566C8.47337 2.35368 8.80687 2.26769 9.20893 2.26769C9.5738 2.26769 9.89335 2.34438 10.1676 2.49777C10.4418 2.64883 10.6545 2.87426 10.8055 3.17406C10.9566 3.47386 11.0321 3.84454 11.0321 4.2861V7.69196H9.9898V4.4116C9.9898 4.02349 9.8887 3.7202 9.68651 3.50174C9.48432 3.28096 9.2066 3.17057 8.85335 3.17057C8.61165 3.17057 8.39668 3.22286 8.20844 3.32744C8.02251 3.43202 7.87494 3.58541 7.76571 3.7876C7.6588 3.98746 7.60535 4.22916 7.60535 4.51269ZM14.675 9.81146C14.2497 9.81146 13.8837 9.75569 13.5769 9.64413C13.2725 9.53258 13.0238 9.38501 12.8309 9.20141C12.638 9.01781 12.4939 8.81678 12.3986 8.59832L13.2946 8.2288C13.3573 8.33106 13.441 8.43913 13.5456 8.55301C13.6525 8.66921 13.7965 8.76798 13.9778 8.84932C14.1614 8.93066 14.3973 8.97133 14.6855 8.97133C15.0806 8.97133 15.4071 8.87488 15.6651 8.68199C15.923 8.49142 16.052 8.18697 16.052 7.76865V6.71587H15.9858C15.923 6.82974 15.8324 6.9564 15.7139 7.09584C15.5977 7.23529 15.4373 7.35613 15.2328 7.45839C15.0283 7.56065 14.7622 7.61178 14.4345 7.61178C14.0115 7.61178 13.6304 7.51301 13.2911 7.31546C12.9541 7.1156 12.6868 6.82161 12.4893 6.4335C12.2941 6.04306 12.1965 5.56315 12.1965 4.99377C12.1965 4.42438 12.2929 3.93634 12.4858 3.52963C12.681 3.12293 12.9483 2.81151 13.2876 2.59538C13.6269 2.37692 14.0115 2.26769 14.4415 2.26769C14.7738 2.26769 15.0422 2.32347 15.2467 2.43502C15.4512 2.54425 15.6104 2.67207 15.7243 2.81848C15.8405 2.9649 15.93 3.09388 15.9927 3.20543H16.0694V2.33741H17.0908V7.81048C17.0908 8.27064 16.9839 8.64829 16.7701 8.94344C16.5563 9.23859 16.267 9.45705 15.9021 9.59882C15.5396 9.74058 15.1305 9.81146 14.675 9.81146ZM14.6646 6.74724C14.9644 6.74724 15.2177 6.67752 15.4245 6.53808C15.6337 6.39631 15.7917 6.19412 15.8986 5.93151C16.0079 5.66657 16.0625 5.34934 16.0625 4.97982C16.0625 4.6196 16.009 4.30237 15.9021 4.02814C15.7952 3.7539 15.6383 3.54009 15.4315 3.38671C15.2247 3.231 14.969 3.15314 14.6646 3.15314C14.3508 3.15314 14.0894 3.23448 13.8802 3.39716C13.671 3.55752 13.513 3.77598 13.4061 4.05254C13.3015 4.3291 13.2492 4.63819 13.2492 4.97982C13.2492 5.33075 13.3027 5.63868 13.4096 5.90362C13.5165 6.16856 13.6745 6.3754 13.8837 6.52413C14.0952 6.67287 14.3555 6.74724 14.6646 6.74724ZM18.4887 7.69196V2.33741H19.5311V7.69196H18.4887ZM19.0151 1.51122C18.8339 1.51122 18.6782 1.4508 18.548 1.32995C18.4202 1.20677 18.3563 1.06036 18.3563 0.890706C18.3563 0.718728 18.4202 0.572315 18.548 0.451466C18.6782 0.328293 18.8339 0.266706 19.0151 0.266706C19.1964 0.266706 19.351 0.328293 19.4788 0.451466C19.6089 0.572315 19.674 0.718728 19.674 0.890706C19.674 1.06036 19.6089 1.20677 19.4788 1.32995C19.351 1.4508 19.1964 1.51122 19.0151 1.51122ZM21.9756 4.51269V7.69196H20.9333V2.33741H21.9338V3.20892H22.0001C22.1232 2.92539 22.3161 2.69763 22.5787 2.52566C22.8437 2.35368 23.1772 2.26769 23.5792 2.26769C23.9441 2.26769 24.2636 2.34438 24.5379 2.49777C24.8121 2.64883 25.0248 2.87426 25.1758 3.17406C25.3269 3.47386 25.4024 3.84454 25.4024 4.2861V7.69196H24.3601V4.4116C24.3601 4.02349 24.259 3.7202 24.0568 3.50174C23.8546 3.28096 23.5769 3.17057 23.2236 3.17057C22.982 3.17057 22.767 3.22286 22.5787 3.32744C22.3928 3.43202 22.2452 3.58541 22.136 3.7876C22.0291 3.98746 21.9756 4.22916 21.9756 4.51269ZM29.1081 7.80002C28.5805 7.80002 28.1262 7.68731 27.745 7.46188C27.3662 7.23412 27.0734 6.91457 26.8666 6.50322C26.662 6.08954 26.5598 5.60498 26.5598 5.04954C26.5598 4.50107 26.662 4.01768 26.8666 3.59935C27.0734 3.18103 27.3616 2.8545 27.7311 2.61978C28.1029 2.38505 28.5375 2.26769 29.0349 2.26769C29.337 2.26769 29.6298 2.31766 29.9133 2.41759C30.1969 2.51752 30.4514 2.67439 30.6768 2.8882C30.9022 3.10201 31.08 3.37973 31.2102 3.72136C31.3403 4.06067 31.4054 4.47319 31.4054 4.95891V5.32843H27.1489V4.54755H30.384C30.384 4.27332 30.3282 4.03046 30.2166 3.81897C30.1051 3.60516 29.9482 3.43667 29.746 3.3135C29.5462 3.19033 29.3114 3.12874 29.0418 3.12874C28.749 3.12874 28.4934 3.20078 28.2749 3.34487C28.0588 3.48664 27.8914 3.67256 27.7729 3.90264C27.6567 4.13039 27.5986 4.3779 27.5986 4.64516V5.25522C27.5986 5.61312 27.6614 5.91756 27.7869 6.16856C27.9147 6.41955 28.0925 6.61129 28.3202 6.74375C28.548 6.8739 28.8141 6.93897 29.1185 6.93897C29.3161 6.93897 29.4962 6.91108 29.6589 6.85531C29.8215 6.79721 29.9622 6.71122 30.0807 6.59734C30.1992 6.48346 30.2898 6.34286 30.3526 6.17553L31.3391 6.35332C31.2601 6.64382 31.1184 6.8983 30.9138 7.11676C30.7116 7.33289 30.4572 7.50139 30.1504 7.62223C29.8459 7.74076 29.4985 7.80002 29.1081 7.80002ZM34.8696 7.80002C34.3421 7.80002 33.8877 7.68731 33.5066 7.46188C33.1278 7.23412 32.8349 6.91457 32.6281 6.50322C32.4236 6.08954 32.3213 5.60498 32.3213 5.04954C32.3213 4.50107 32.4236 4.01768 32.6281 3.59935C32.8349 3.18103 33.1231 2.8545 33.4926 2.61978C33.8645 2.38505 34.2991 2.26769 34.7964 2.26769C35.0985 2.26769 35.3914 2.31766 35.6749 2.41759C35.9584 2.51752 36.2129 2.67439 36.4383 2.8882C36.6638 3.10201 36.8415 3.37973 36.9717 3.72136C37.1018 4.06067 37.1669 4.47319 37.1669 4.95891V5.32843H32.9105V4.54755H36.1455C36.1455 4.27332 36.0897 4.03046 35.9782 3.81897C35.8666 3.60516 35.7097 3.43667 35.5076 3.3135C35.3077 3.19033 35.073 3.12874 34.8034 3.12874C34.5106 3.12874 34.2549 3.20078 34.0365 3.34487C33.8203 3.48664 33.653 3.67256 33.5345 3.90264C33.4183 4.13039 33.3602 4.3779 33.3602 4.64516V5.25522C33.3602 5.61312 33.4229 5.91756 33.5484 6.16856C33.6762 6.41955 33.854 6.61129 34.0818 6.74375C34.3095 6.8739 34.5756 6.93897 34.8801 6.93897C35.0776 6.93897 35.2577 6.91108 35.4204 6.85531C35.5831 6.79721 35.7237 6.71122 35.8422 6.59734C35.9607 6.48346 36.0514 6.34286 36.1141 6.17553L37.1007 6.35332C37.0217 6.64382 36.8799 6.8983 36.6754 7.11676C36.4732 7.33289 36.2187 7.50139 35.9119 7.62223C35.6075 7.74076 35.26 7.80002 34.8696 7.80002ZM38.3234 7.69196V2.33741H39.3309V3.188H39.3866C39.4842 2.89982 39.6562 2.67323 39.9026 2.50823C40.1512 2.3409 40.4324 2.25723 40.7462 2.25723C40.8113 2.25723 40.888 2.25955 40.9763 2.2642C41.0669 2.26885 41.1378 2.27466 41.1889 2.28163V3.27864C41.1471 3.26702 41.0727 3.25424 40.9658 3.24029C40.8589 3.22402 40.752 3.21589 40.6451 3.21589C40.3988 3.21589 40.1791 3.26818 39.9862 3.37276C39.7957 3.47502 39.6446 3.61795 39.5331 3.80154C39.4215 3.98282 39.3657 4.18965 39.3657 4.42206V7.69196H38.3234ZM42.0909 7.69196V2.33741H43.1333V7.69196H42.0909ZM42.6173 1.51122C42.436 1.51122 42.2803 1.4508 42.1502 1.32995C42.0224 1.20677 41.9585 1.06036 41.9585 0.890706C41.9585 0.718728 42.0224 0.572315 42.1502 0.451466C42.2803 0.328293 42.436 0.266706 42.6173 0.266706C42.7986 0.266706 42.9531 0.328293 43.081 0.451466C43.2111 0.572315 43.2762 0.718728 43.2762 0.890706C43.2762 1.06036 43.2111 1.20677 43.081 1.32995C42.9531 1.4508 42.7986 1.51122 42.6173 1.51122ZM45.5778 4.51269V7.69196H44.5355V2.33741H45.536V3.20892H45.6022C45.7254 2.92539 45.9183 2.69763 46.1809 2.52566C46.4459 2.35368 46.7794 2.26769 47.1814 2.26769C47.5463 2.26769 47.8658 2.34438 48.1401 2.49777C48.4143 2.64883 48.6269 2.87426 48.778 3.17406C48.9291 3.47386 49.0046 3.84454 49.0046 4.2861V7.69196H47.9623V4.4116C47.9623 4.02349 47.8612 3.7202 47.659 3.50174C47.4568 3.28096 47.1791 3.17057 46.8258 3.17057C46.5841 3.17057 46.3692 3.22286 46.1809 3.32744C45.995 3.43202 45.8474 3.58541 45.7382 3.7876C45.6313 3.98746 45.5778 4.22916 45.5778 4.51269ZM52.6475 9.81146C52.2222 9.81146 51.8562 9.75569 51.5494 9.64413C51.245 9.53258 50.9963 9.38501 50.8034 9.20141C50.6105 9.01781 50.4664 8.81678 50.3711 8.59832L51.267 8.2288C51.3298 8.33106 51.4135 8.43913 51.518 8.55301C51.6249 8.66921 51.769 8.76798 51.9503 8.84932C52.1339 8.93066 52.3698 8.97133 52.658 8.97133C53.053 8.97133 53.3796 8.87488 53.6375 8.68199C53.8955 8.49142 54.0245 8.18697 54.0245 7.76865V6.71587H53.9583C53.8955 6.82974 53.8049 6.9564 53.6863 7.09584C53.5701 7.23529 53.4098 7.35613 53.2053 7.45839C53.0008 7.56065 52.7347 7.61178 52.407 7.61178C51.984 7.61178 51.6029 7.51301 51.2636 7.31546C50.9266 7.1156 50.6593 6.82161 50.4618 6.4335C50.2665 6.04306 50.1689 5.56315 50.1689 4.99377C50.1689 4.42438 50.2654 3.93634 50.4583 3.52963C50.6535 3.12293 50.9208 2.81151 51.2601 2.59538C51.5994 2.37692 51.984 2.26769 52.4139 2.26769C52.7463 2.26769 53.0147 2.32347 53.2192 2.43502C53.4237 2.54425 53.5829 2.67207 53.6968 2.81848C53.813 2.9649 53.9025 3.09388 53.9652 3.20543H54.0419V2.33741H55.0633V7.81048C55.0633 8.27064 54.9564 8.64829 54.7426 8.94344C54.5288 9.23859 54.2395 9.45705 53.8746 9.59882C53.512 9.74058 53.103 9.81146 52.6475 9.81146ZM52.637 6.74724C52.9368 6.74724 53.1902 6.67752 53.397 6.53808C53.6062 6.39631 53.7642 6.19412 53.8711 5.93151C53.9803 5.66657 54.0349 5.34934 54.0349 4.97982C54.0349 4.6196 53.9815 4.30237 53.8746 4.02814C53.7677 3.7539 53.6108 3.54009 53.404 3.38671C53.1971 3.231 52.9415 3.15314 52.637 3.15314C52.3233 3.15314 52.0619 3.23448 51.8527 3.39716C51.6435 3.55752 51.4855 3.77598 51.3786 4.05254C51.274 4.3291 51.2217 4.63819 51.2217 4.97982C51.2217 5.33075 51.2752 5.63868 51.3821 5.90362C51.489 6.16856 51.647 6.3754 51.8562 6.52413C52.0677 6.67287 52.328 6.74724 52.637 6.74724Z" fill="#15294B"/>
</svg>
