<svg width="37" height="8" viewBox="0 0 37 8" fill="none" xmlns="http://www.w3.org/2000/svg">
<path d="M0.650593 7.89197V0.752573H3.1954C3.75084 0.752573 4.21099 0.853668 4.57587 1.05586C4.94074 1.25805 5.21381 1.53461 5.39508 1.88553C5.57636 2.23414 5.66699 2.6269 5.66699 3.06381C5.66699 3.50305 5.5752 3.89814 5.3916 4.24906C5.21032 4.59767 4.93609 4.87423 4.56889 5.07874C4.20402 5.28093 3.74503 5.38202 3.19191 5.38202H1.44192V4.46868H3.0943C3.44523 4.46868 3.72992 4.40826 3.94838 4.28741C4.16684 4.16424 4.3272 3.99691 4.42945 3.78542C4.53171 3.57394 4.58284 3.3334 4.58284 3.06381C4.58284 2.79423 4.53171 2.55485 4.42945 2.34569C4.3272 2.13653 4.16568 1.97268 3.94489 1.85416C3.72644 1.73563 3.43826 1.67637 3.08036 1.67637H1.72778V7.89197H0.650593ZM6.84614 7.89197V2.53742H7.85361V3.38801H7.90938C8.00699 3.09983 8.17897 2.87324 8.42532 2.70824C8.67399 2.54091 8.95519 2.45724 9.26894 2.45724C9.33401 2.45724 9.4107 2.45957 9.49902 2.46422C9.58965 2.46886 9.66053 2.47467 9.71166 2.48165V3.47865C9.66983 3.46703 9.59546 3.45425 9.48856 3.4403C9.38165 3.42404 9.27475 3.4159 9.16784 3.4159C8.9215 3.4159 8.70188 3.46819 8.50898 3.57277C8.31841 3.67503 8.16735 3.81796 8.0558 4.00156C7.94424 4.18283 7.88847 4.38967 7.88847 4.62207V7.89197H6.84614ZM12.6774 8.00003C12.1754 8.00003 11.7373 7.885 11.3632 7.65492C10.989 7.42484 10.6985 7.10296 10.4917 6.68929C10.2848 6.27561 10.1814 5.79221 10.1814 5.2391C10.1814 4.68366 10.2848 4.19794 10.4917 3.78194C10.6985 3.36594 10.989 3.0429 11.3632 2.81282C11.7373 2.58274 12.1754 2.4677 12.6774 2.4677C13.1794 2.4677 13.6175 2.58274 13.9916 2.81282C14.3658 3.0429 14.6563 3.36594 14.8631 3.78194C15.07 4.19794 15.1734 4.68366 15.1734 5.2391C15.1734 5.79221 15.07 6.27561 14.8631 6.68929C14.6563 7.10296 14.3658 7.42484 13.9916 7.65492C13.6175 7.885 13.1794 8.00003 12.6774 8.00003ZM12.6809 7.12504C13.0063 7.12504 13.2758 7.03905 13.4897 6.86707C13.7035 6.6951 13.8615 6.46618 13.9638 6.18033C14.0683 5.89447 14.1206 5.57957 14.1206 5.23561C14.1206 4.89398 14.0683 4.58024 13.9638 4.29438C13.8615 4.0062 13.7035 3.77496 13.4897 3.60066C13.2758 3.42636 13.0063 3.33921 12.6809 3.33921C12.3532 3.33921 12.0813 3.42636 11.8652 3.60066C11.6513 3.77496 11.4922 4.0062 11.3876 4.29438C11.2853 4.58024 11.2342 4.89398 11.2342 5.23561C11.2342 5.57957 11.2853 5.89447 11.3876 6.18033C11.4922 6.46618 11.6513 6.6951 11.8652 6.86707C12.0813 7.03905 12.3532 7.12504 12.6809 7.12504ZM18.3413 7.99655C17.9091 7.99655 17.5233 7.88616 17.184 7.66538C16.847 7.44227 16.5821 7.12504 16.3892 6.71369C16.1986 6.30001 16.1033 5.80383 16.1033 5.22515C16.1033 4.64647 16.1998 4.15145 16.3926 3.7401C16.5879 3.32875 16.8551 3.01385 17.1944 2.79539C17.5337 2.57693 17.9184 2.4677 18.3483 2.4677C18.6806 2.4677 18.9479 2.52348 19.1501 2.63503C19.3546 2.74426 19.5126 2.87208 19.6242 3.01849C19.7381 3.16491 19.8264 3.29389 19.8891 3.40544H19.9519V0.752573H20.9942V7.89197H19.9763V7.05881H19.8891C19.8264 7.17268 19.7357 7.30283 19.6172 7.44924C19.501 7.59565 19.3407 7.72348 19.1362 7.83271C18.9316 7.94193 18.6667 7.99655 18.3413 7.99655ZM18.5714 7.10761C18.8712 7.10761 19.1245 7.02859 19.3314 6.87056C19.5405 6.7102 19.6986 6.48826 19.8055 6.20473C19.9147 5.9212 19.9693 5.59119 19.9693 5.21469C19.9693 4.84285 19.9159 4.51749 19.809 4.23861C19.7021 3.95972 19.5452 3.74243 19.3383 3.58672C19.1315 3.43101 18.8759 3.35315 18.5714 3.35315C18.2577 3.35315 17.9962 3.43449 17.7871 3.59718C17.5779 3.75986 17.4199 3.9818 17.313 4.26301C17.2084 4.54421 17.1561 4.86144 17.1561 5.21469C17.1561 5.57259 17.2095 5.89447 17.3164 6.18033C17.4233 6.46618 17.5814 6.69277 17.7905 6.8601C18.002 7.02511 18.2623 7.10761 18.5714 7.10761ZM25.8738 5.67137V2.53742H26.9196V7.89197H25.8947V6.96468H25.8389C25.7157 7.25054 25.5182 7.48875 25.2463 7.67932C24.9767 7.86757 24.6409 7.96169 24.2388 7.96169C23.8949 7.96169 23.5904 7.88616 23.3255 7.7351C23.0629 7.58171 22.856 7.35512 22.705 7.05532C22.5562 6.75552 22.4819 6.38484 22.4819 5.94328V2.53742H23.5242V5.81778C23.5242 6.18265 23.6253 6.47315 23.8275 6.68929C24.0297 6.90542 24.2923 7.01349 24.6153 7.01349C24.8105 7.01349 25.0046 6.96468 25.1975 6.86707C25.3927 6.76947 25.5542 6.62189 25.682 6.42435C25.8122 6.22681 25.8761 5.97581 25.8738 5.67137ZM30.5756 8.00003C30.0573 8.00003 29.6111 7.88267 29.2369 7.64795C28.8651 7.4109 28.5792 7.08437 28.3794 6.66837C28.1795 6.25237 28.0796 5.77595 28.0796 5.2391C28.0796 4.69528 28.1818 4.21537 28.3863 3.79937C28.5909 3.38104 28.879 3.05452 29.2509 2.81979C29.6227 2.58506 30.0608 2.4677 30.5651 2.4677C30.9718 2.4677 31.3344 2.54323 31.6528 2.69429C31.9711 2.84303 32.2279 3.05219 32.4232 3.32178C32.6207 3.59137 32.7381 3.90627 32.7753 4.26649H31.7608C31.705 4.0155 31.5772 3.79937 31.3774 3.61809C31.1798 3.43682 30.9149 3.34618 30.5825 3.34618C30.292 3.34618 30.0376 3.42287 29.8191 3.57626C29.603 3.72732 29.4345 3.94345 29.3136 4.22466C29.1928 4.50354 29.1323 4.83356 29.1323 5.21469C29.1323 5.60513 29.1916 5.94211 29.3101 6.22564C29.4287 6.50917 29.596 6.72879 29.8121 6.8845C30.0306 7.04021 30.2874 7.11807 30.5825 7.11807C30.7801 7.11807 30.959 7.08205 31.1194 7.01C31.2821 6.93563 31.418 6.82989 31.5273 6.69277C31.6388 6.55566 31.7167 6.39065 31.7608 6.19776H32.7753C32.7381 6.54404 32.6254 6.85313 32.4371 7.12504C32.2489 7.39695 31.9967 7.61076 31.6806 7.76647C31.3669 7.92218 30.9985 8.00003 30.5756 8.00003ZM36.3894 2.53742V3.37407H33.4646V2.53742H36.3894ZM34.249 1.25456H35.2913V6.31977C35.2913 6.52196 35.3215 6.67418 35.3819 6.77644C35.4424 6.87637 35.5202 6.94493 35.6155 6.98211C35.7131 7.01697 35.8189 7.0344 35.9327 7.0344C36.0164 7.0344 36.0896 7.02859 36.1524 7.01697C36.2151 7.00535 36.2639 6.99606 36.2988 6.98909L36.487 7.85014C36.4266 7.87338 36.3406 7.89662 36.229 7.91986C36.1175 7.94542 35.9781 7.95936 35.8107 7.96169C35.5365 7.96634 35.2808 7.91753 35.0438 7.81528C34.8067 7.71302 34.615 7.55498 34.4686 7.34117C34.3222 7.12736 34.249 6.85894 34.249 6.5359V1.25456Z" fill="#15294B"/>
</svg>
