<svg width="98" height="34" viewBox="0 0 98 34" fill="none" xmlns="http://www.w3.org/2000/svg">
<g filter="url(#filter0_d_2815_1004)">
<rect x="2.32477" y="1.37253" width="93.8111" height="30.0889" rx="6.54445" fill="white"/>
<rect x="2.7338" y="1.78156" width="92.9931" height="29.2708" rx="6.13542" stroke="#D0D5DD" stroke-width="0.818056"/>
<path d="M26.7301 16.417H17.1861M17.1861 16.417L21.9581 21.189M17.1861 16.417L21.9581 11.645" stroke="#344054" stroke-width="1.36615" stroke-linecap="round" stroke-linejoin="round"/>
<path d="M37.5982 19.917V11.5877H40.5671C41.2151 11.5877 41.752 11.7056 42.1777 11.9415C42.6034 12.1774 42.9219 12.5001 43.1334 12.9095C43.3449 13.3162 43.4507 13.7744 43.4507 14.2841C43.4507 14.7966 43.3436 15.2575 43.1294 15.6669C42.9179 16.0736 42.5979 16.3963 42.1695 16.6349C41.7439 16.8708 41.2084 16.9887 40.5631 16.9887H38.5214V15.9231H40.4492C40.8586 15.9231 41.1907 15.8527 41.4456 15.7117C41.7005 15.568 41.8876 15.3727 42.0069 15.126C42.1262 14.8793 42.1858 14.5986 42.1858 14.2841C42.1858 13.9696 42.1262 13.6903 42.0069 13.4463C41.8876 13.2023 41.6991 13.0111 41.4415 12.8729C41.1867 12.7346 40.8505 12.6654 40.4329 12.6654H38.8549V19.917H37.5982ZM44.8263 19.917V13.67H46.0017V14.6624H46.0668C46.1807 14.3262 46.3813 14.0618 46.6687 13.8693C46.9588 13.6741 47.2869 13.5765 47.6529 13.5765C47.7288 13.5765 47.8183 13.5792 47.9213 13.5846C48.0271 13.59 48.1098 13.5968 48.1694 13.6049V14.7681C48.1206 14.7546 48.0339 14.7396 47.9091 14.7234C47.7844 14.7044 47.6597 14.6949 47.535 14.6949C47.2476 14.6949 46.9914 14.7559 46.7663 14.8779C46.544 14.9972 46.3677 15.164 46.2376 15.3782C46.1074 15.5896 46.0424 15.831 46.0424 16.1021V19.917H44.8263ZM51.6905 20.0431C51.075 20.0431 50.5449 19.9116 50.1003 19.6486C49.6583 19.3828 49.3167 19.01 49.0754 18.5301C48.8368 18.0475 48.7175 17.4822 48.7175 16.8342C48.7175 16.1943 48.8368 15.6303 49.0754 15.1423C49.3167 14.6542 49.6529 14.2733 50.084 13.9994C50.5178 13.7256 51.0248 13.5887 51.6051 13.5887C51.9575 13.5887 52.2992 13.647 52.63 13.7635C52.9607 13.8801 53.2576 14.0632 53.5206 14.3126C53.7836 14.562 53.9911 14.8861 54.1429 15.2846C54.2947 15.6805 54.3707 16.1617 54.3707 16.7284V17.1595H49.4048V16.2485H53.179C53.179 15.9286 53.1139 15.6452 52.9838 15.3985C52.8536 15.1491 52.6706 14.9525 52.4347 14.8088C52.2016 14.6651 51.9277 14.5932 51.6132 14.5932C51.2716 14.5932 50.9733 14.6773 50.7185 14.8454C50.4663 15.0108 50.2711 15.2277 50.1328 15.4961C49.9972 15.7618 49.9294 16.0506 49.9294 16.3624V17.0741C49.9294 17.4917 50.0027 17.8469 50.1491 18.1397C50.2982 18.4325 50.5056 18.6562 50.7713 18.8107C51.037 18.9626 51.3475 19.0385 51.7027 19.0385C51.9331 19.0385 52.1433 19.006 52.3331 18.9409C52.5229 18.8731 52.6869 18.7728 52.8252 18.6399C52.9635 18.5071 53.0692 18.343 53.1424 18.1478L54.2934 18.3552C54.2012 18.6942 54.0358 18.991 53.7972 19.2459C53.5613 19.4981 53.2644 19.6946 52.9065 19.8356C52.5513 19.9739 52.146 20.0431 51.6905 20.0431ZM60.885 13.67L58.6197 19.917H57.3182L55.0488 13.67H56.3544L57.9364 18.4772H58.0015L59.5795 13.67H60.885ZM62.0279 19.917V13.67H63.2439V19.917H62.0279ZM62.642 12.7061C62.4305 12.7061 62.2488 12.6356 62.097 12.4946C61.9479 12.3509 61.8733 12.1801 61.8733 11.9822C61.8733 11.7815 61.9479 11.6107 62.097 11.4697C62.2488 11.326 62.4305 11.2542 62.642 11.2542C62.8535 11.2542 63.0338 11.326 63.1829 11.4697C63.3347 11.6107 63.4107 11.7815 63.4107 11.9822C63.4107 12.1801 63.3347 12.3509 63.1829 12.4946C63.0338 12.6356 62.8535 12.7061 62.642 12.7061ZM67.5113 20.0431C66.9256 20.0431 66.4145 19.9088 65.978 19.6404C65.5415 19.372 65.2025 18.9965 64.9612 18.5138C64.7199 18.0312 64.5993 17.4673 64.5993 16.822C64.5993 16.1739 64.7199 15.6073 64.9612 15.1219C65.2025 14.6366 65.5415 14.2597 65.978 13.9913C66.4145 13.7229 66.9256 13.5887 67.5113 13.5887C68.0969 13.5887 68.608 13.7229 69.0445 13.9913C69.4811 14.2597 69.82 14.6366 70.0613 15.1219C70.3026 15.6073 70.4233 16.1739 70.4233 16.822C70.4233 17.4673 70.3026 18.0312 70.0613 18.5138C69.82 18.9965 69.4811 19.372 69.0445 19.6404C68.608 19.9088 68.0969 20.0431 67.5113 20.0431ZM67.5153 19.0222C67.8949 19.0222 68.2094 18.9219 68.4589 18.7213C68.7083 18.5206 68.8927 18.2536 69.012 17.9201C69.134 17.5866 69.195 17.2192 69.195 16.8179C69.195 16.4193 69.134 16.0533 69.012 15.7198C68.8927 15.3836 68.7083 15.1138 68.4589 14.9105C68.2094 14.7071 67.8949 14.6054 67.5153 14.6054C67.133 14.6054 66.8158 14.7071 66.5636 14.9105C66.3142 15.1138 66.1285 15.3836 66.0064 15.7198C65.8871 16.0533 65.8275 16.4193 65.8275 16.8179C65.8275 17.2192 65.8871 17.5866 66.0064 17.9201C66.1285 18.2536 66.3142 18.5206 66.5636 18.7213C66.8158 18.9219 67.133 19.0222 67.5153 19.0222ZM75.7379 17.3263V13.67H76.958V19.917H75.7623V18.8351H75.6972C75.5535 19.1686 75.323 19.4466 75.0058 19.6689C74.6913 19.8885 74.2995 19.9983 73.8304 19.9983C73.4291 19.9983 73.0739 19.9102 72.7648 19.734C72.4585 19.555 72.2172 19.2907 72.0409 18.9409C71.8674 18.5911 71.7806 18.1587 71.7806 17.6435V13.67H72.9967V17.4971C72.9967 17.9228 73.1146 18.2617 73.3505 18.5138C73.5864 18.766 73.8928 18.8921 74.2697 18.8921C74.4974 18.8921 74.7238 18.8351 74.9488 18.7213C75.1766 18.6074 75.365 18.4352 75.5142 18.2048C75.666 17.9743 75.7406 17.6815 75.7379 17.3263ZM83.2731 15.1951L82.1709 15.3904C82.1248 15.2494 82.0516 15.1152 81.9513 14.9877C81.8537 14.8603 81.7208 14.7559 81.5527 14.6746C81.3846 14.5932 81.1745 14.5526 80.9223 14.5526C80.578 14.5526 80.2906 14.6298 80.0601 14.7844C79.8296 14.9362 79.7144 15.1328 79.7144 15.3741C79.7144 15.5829 79.7917 15.751 79.9462 15.8784C80.1008 16.0058 80.3502 16.1102 80.6946 16.1916L81.6869 16.4193C82.2617 16.5522 82.6901 16.7569 82.9721 17.0334C83.2541 17.31 83.3951 17.6693 83.3951 18.1112C83.3951 18.4854 83.2866 18.8189 83.0697 19.1117C82.8555 19.4018 82.5559 19.6296 82.1709 19.795C81.7886 19.9604 81.3453 20.0431 80.841 20.0431C80.1414 20.0431 79.5707 19.8939 79.1287 19.5957C78.6868 19.2947 78.4157 18.8677 78.3153 18.3146L79.4907 18.1356C79.5639 18.442 79.7144 18.6738 79.9422 18.8311C80.1699 18.9856 80.4668 19.0629 80.8328 19.0629C81.2314 19.0629 81.55 18.9802 81.7886 18.8148C82.0272 18.6467 82.1465 18.442 82.1465 18.2007C82.1465 18.0055 82.0733 17.8414 81.9269 17.7086C81.7832 17.5757 81.5622 17.4754 81.2639 17.4076L80.2065 17.1758C79.6236 17.0429 79.1925 16.8315 78.9132 16.5413C78.6366 16.2512 78.4984 15.8838 78.4984 15.4392C78.4984 15.0704 78.6014 14.7478 78.8074 14.4712C79.0135 14.1947 79.2982 13.9791 79.6615 13.8246C80.0248 13.6673 80.441 13.5887 80.9101 13.5887C81.5852 13.5887 82.1167 13.7351 82.5044 14.0279C82.8921 14.318 83.1483 14.7071 83.2731 15.1951Z" fill="#344054"/>
</g>
<defs>
<filter id="filter0_d_2815_1004" x="0.688657" y="0.554472" width="97.0833" height="33.3611" filterUnits="userSpaceOnUse" color-interpolation-filters="sRGB">
<feFlood flood-opacity="0" result="BackgroundImageFix"/>
<feColorMatrix in="SourceAlpha" type="matrix" values="0 0 0 0 0 0 0 0 0 0 0 0 0 0 0 0 0 0 127 0" result="hardAlpha"/>
<feOffset dy="0.818056"/>
<feGaussianBlur stdDeviation="0.818056"/>
<feColorMatrix type="matrix" values="0 0 0 0 0.0627451 0 0 0 0 0.0941176 0 0 0 0 0.156863 0 0 0 0.05 0"/>
<feBlend mode="normal" in2="BackgroundImageFix" result="effect1_dropShadow_2815_1004"/>
<feBlend mode="normal" in="SourceGraphic" in2="effect1_dropShadow_2815_1004" result="shape"/>
</filter>
</defs>
</svg>
