<svg width="17" height="9" viewBox="0 0 17 9" fill="none" xmlns="http://www.w3.org/2000/svg">
<path d="M4.57187 0.245194H6.06854V6.10173C6.06583 6.63858 5.95195 7.10086 5.72691 7.48859C5.50187 7.8736 5.18735 8.1705 4.78336 8.37927C4.38208 8.58533 3.91437 8.68836 3.38023 8.68836C2.89219 8.68836 2.45295 8.6016 2.06251 8.42807C1.67479 8.25184 1.36705 7.99155 1.13929 7.6472C0.911539 7.30286 0.797662 6.87447 0.797662 6.36202H2.2984C2.30111 6.58706 2.34991 6.78092 2.44481 6.94361C2.54242 7.10629 2.67663 7.23101 2.84745 7.31777C3.01826 7.40454 3.21484 7.44792 3.43717 7.44792C3.67848 7.44792 3.88319 7.39776 4.05129 7.29744C4.2194 7.19441 4.34683 7.04257 4.43359 6.84193C4.52307 6.64129 4.56916 6.39456 4.57187 6.10173V0.245194ZM7.70553 0.245194H9.55196L12.0247 6.28068H12.1223L14.5951 0.245194H16.4415V8.57449H14.9937V2.85217H14.9164L12.6144 8.55009H11.5326L9.23066 2.83996H9.15339V8.57449H7.70553V0.245194Z" fill="#93312B"/>
</svg>
