<svg width="3" height="13" viewBox="0 0 3 13" fill="none" xmlns="http://www.w3.org/2000/svg">
<path d="M1.64566 7.17362C2.02216 7.17362 2.32737 6.86841 2.32737 6.49191C2.32737 6.11541 2.02216 5.8102 1.64566 5.8102C1.26916 5.8102 0.963944 6.11541 0.963944 6.49191C0.963944 6.86841 1.26916 7.17362 1.64566 7.17362Z" stroke="#344054" stroke-width="1.36343" stroke-linecap="round" stroke-linejoin="round"/>
<path d="M1.64566 2.40163C2.02216 2.40163 2.32737 2.09642 2.32737 1.71992C2.32737 1.34342 2.02216 1.03821 1.64566 1.03821C1.26916 1.03821 0.963944 1.34342 0.963944 1.71992C0.963944 2.09642 1.26916 2.40163 1.64566 2.40163Z" stroke="#344054" stroke-width="1.36343" stroke-linecap="round" stroke-linejoin="round"/>
<path d="M1.64566 11.9456C2.02216 11.9456 2.32737 11.6404 2.32737 11.2639C2.32737 10.8874 2.02216 10.5822 1.64566 10.5822C1.26916 10.5822 0.963944 10.8874 0.963944 11.2639C0.963944 11.6404 1.26916 11.9456 1.64566 11.9456Z" stroke="#344054" stroke-width="1.36343" stroke-linecap="round" stroke-linejoin="round"/>
</svg>
