<svg width="34" height="34" viewBox="0 0 34 34" fill="none" xmlns="http://www.w3.org/2000/svg">
<rect x="0.899078" y="0.816833" width="32.7222" height="32.7222" rx="4.90833" fill="white"/>
<path d="M18.4396 23.3134C18.3197 23.52 18.1477 23.6915 17.9407 23.8107C17.7337 23.9299 17.499 23.9927 17.2602 23.9927C17.0213 23.9927 16.7867 23.9299 16.5797 23.8107C16.3727 23.6915 16.2007 23.52 16.0808 23.3134M21.3505 14.4511C21.3505 13.3663 20.9195 12.3259 20.1525 11.5589C19.3854 10.7918 18.345 10.3608 17.2602 10.3608C16.1754 10.3608 15.135 10.7918 14.3679 11.5589C13.6008 12.3259 13.1699 13.3663 13.1699 14.4511C13.1699 19.2231 11.1248 20.5865 11.1248 20.5865H23.3956C23.3956 20.5865 21.3505 19.2231 21.3505 14.4511Z" stroke="#667085" stroke-width="1.36343" stroke-linecap="round" stroke-linejoin="round"/>
</svg>
