<svg width="34" height="34" viewBox="0 0 34 34" fill="none" xmlns="http://www.w3.org/2000/svg">
<rect x="0.904602" y="0.816833" width="32.7222" height="32.7222" rx="4.90833" fill="white"/>
<g clip-path="url(#clip0_2802_1060)">
<path d="M17.2657 19.2231C18.3952 19.2231 19.3109 18.3074 19.3109 17.1779C19.3109 16.0484 18.3952 15.1328 17.2657 15.1328C16.1362 15.1328 15.2206 16.0484 15.2206 17.1779C15.2206 18.3074 16.1362 19.2231 17.2657 19.2231Z" stroke="#667085" stroke-width="1.36343" stroke-linecap="round" stroke-linejoin="round"/>
<path d="M22.3104 19.2231C22.2197 19.4287 22.1926 19.6568 22.2327 19.8779C22.2728 20.099 22.3782 20.3031 22.5354 20.4638L22.5763 20.5047C22.703 20.6313 22.8036 20.7817 22.8722 20.9472C22.9408 21.1127 22.9762 21.2901 22.9762 21.4693C22.9762 21.6485 22.9408 21.8259 22.8722 21.9914C22.8036 22.1569 22.703 22.3073 22.5763 22.4339C22.4497 22.5607 22.2993 22.6613 22.1338 22.7299C21.9682 22.7985 21.7908 22.8338 21.6117 22.8338C21.4325 22.8338 21.2551 22.7985 21.0895 22.7299C20.924 22.6613 20.7737 22.5607 20.647 22.4339L20.6061 22.393C20.4455 22.2359 20.2414 22.1304 20.0203 22.0903C19.7991 22.0502 19.571 22.0773 19.3654 22.1681C19.1638 22.2545 18.9918 22.398 18.8707 22.5809C18.7496 22.7638 18.6846 22.9781 18.6837 23.1974V23.3133C18.6837 23.6749 18.5401 24.0217 18.2844 24.2774C18.0287 24.5331 17.6819 24.6768 17.3203 24.6768C16.9587 24.6768 16.6119 24.5331 16.3562 24.2774C16.1005 24.0217 15.9568 23.6749 15.9568 23.3133V23.252C15.9516 23.0263 15.8785 22.8075 15.7472 22.6239C15.6159 22.4403 15.4324 22.3005 15.2206 22.2226C15.015 22.1318 14.7869 22.1048 14.5657 22.1449C14.3446 22.185 14.1405 22.2904 13.9799 22.4476L13.939 22.4885C13.8123 22.6152 13.662 22.7158 13.4965 22.7844C13.3309 22.853 13.1535 22.8883 12.9744 22.8883C12.7952 22.8883 12.6178 22.853 12.4522 22.7844C12.2867 22.7158 12.1364 22.6152 12.0097 22.4885C11.883 22.3618 11.7824 22.2115 11.7138 22.046C11.6452 21.8804 11.6099 21.703 11.6099 21.5238C11.6099 21.3447 11.6452 21.1672 11.7138 21.0017C11.7824 20.8362 11.883 20.6858 12.0097 20.5592L12.0506 20.5183C12.2078 20.3576 12.3132 20.1536 12.3533 19.9324C12.3934 19.7113 12.3663 19.4832 12.2756 19.2776C12.1892 19.076 12.0457 18.904 11.8628 18.7829C11.6799 18.6618 11.4656 18.5968 11.2462 18.5959H11.1303C10.7687 18.5959 10.4219 18.4522 10.1662 18.1965C9.91054 17.9409 9.76689 17.5941 9.76689 17.2325C9.76689 16.8709 9.91054 16.5241 10.1662 16.2684C10.4219 16.0127 10.7687 15.869 11.1303 15.869H11.1917C11.4173 15.8638 11.6362 15.7907 11.8197 15.6594C12.0033 15.5281 12.1431 15.3446 12.2211 15.1328C12.3118 14.9272 12.3389 14.6991 12.2988 14.4779C12.2587 14.2568 12.1533 14.0527 11.9961 13.8921L11.9552 13.8512C11.8284 13.7245 11.7279 13.5742 11.6592 13.4086C11.5906 13.2431 11.5553 13.0657 11.5553 12.8865C11.5553 12.7074 11.5906 12.5299 11.6592 12.3644C11.7279 12.1989 11.8284 12.0485 11.9552 11.9219C12.0818 11.7951 12.2322 11.6946 12.3977 11.626C12.5632 11.5574 12.7406 11.522 12.9198 11.522C13.099 11.522 13.2764 11.5574 13.4419 11.626C13.6074 11.6946 13.7578 11.7951 13.8844 11.9219L13.9253 11.9628C14.086 12.12 14.2901 12.2254 14.5112 12.2655C14.7324 12.3056 14.9604 12.2785 15.1661 12.1878H15.2206C15.4222 12.1014 15.5942 11.9579 15.7153 11.775C15.8364 11.5921 15.9014 11.3778 15.9023 11.1584V11.0425C15.9023 10.6809 16.046 10.3341 16.3016 10.0784C16.5573 9.82272 16.9041 9.67908 17.2657 9.67908C17.6273 9.67908 17.9741 9.82272 18.2298 10.0784C18.4855 10.3341 18.6292 10.6809 18.6292 11.0425V11.1039C18.63 11.3232 18.695 11.5375 18.8162 11.7204C18.9373 11.9033 19.1092 12.0468 19.3109 12.1332C19.5165 12.224 19.7446 12.2511 19.9657 12.211C20.1869 12.1709 20.3909 12.0654 20.5516 11.9083L20.5925 11.8674C20.7191 11.7406 20.8695 11.64 21.035 11.5714C21.2005 11.5028 21.3779 11.4675 21.5571 11.4675C21.7363 11.4675 21.9137 11.5028 22.0792 11.5714C22.2447 11.64 22.3951 11.7406 22.5217 11.8674C22.6485 11.994 22.7491 12.1444 22.8177 12.3099C22.8863 12.4754 22.9216 12.6528 22.9216 12.832C22.9216 13.0112 22.8863 13.1886 22.8177 13.3541C22.7491 13.5196 22.6485 13.67 22.5217 13.7966L22.4808 13.8375C22.3237 13.9982 22.2183 14.2023 22.1782 14.4234C22.1381 14.6445 22.1651 14.8726 22.2559 15.0782V15.1328C22.3423 15.3344 22.4858 15.5064 22.6687 15.6275C22.8516 15.7486 23.0659 15.8136 23.2853 15.8145H23.4012C23.7628 15.8145 24.1095 15.9581 24.3652 16.2138C24.6209 16.4695 24.7646 16.8163 24.7646 17.1779C24.7646 17.5395 24.6209 17.8863 24.3652 18.142C24.1095 18.3977 23.7628 18.5413 23.4012 18.5413H23.3398C23.1204 18.5422 22.9061 18.6072 22.7232 18.7283C22.5403 18.8495 22.3968 19.0214 22.3104 19.2231Z" stroke="#667085" stroke-width="1.36343" stroke-linecap="round" stroke-linejoin="round"/>
</g>
<defs>
<clipPath id="clip0_2802_1060">
<rect width="16.3611" height="16.3611" fill="white" transform="translate(9.08519 8.99744)"/>
</clipPath>
</defs>
</svg>
