<svg width="131" height="37" viewBox="0 0 131 37" fill="none" xmlns="http://www.w3.org/2000/svg">
<rect x="0.213654" y="0.890686" width="130.083" height="35.9944" rx="6.54445" fill="#6A1039"/>
<rect x="13.3026" y="10.7073" width="16.3611" height="16.3611" rx="8.18056" stroke="#D0D5DD" stroke-width="0.818056" stroke-linecap="round" stroke-linejoin="round" stroke-dasharray="0.82 2.45"/>
<path d="M21.4831 15.0703V22.7055M17.6655 18.8879H25.3007" stroke="#F5F6F7" stroke-width="1.09074" stroke-linecap="round" stroke-linejoin="round"/>
<path d="M43.8216 14.0586V22.3879H42.8455L38.3067 15.8481H38.2254V22.3879H37.2167V14.0586H38.1928L42.7479 20.6147H42.8292V14.0586H43.8216ZM48.3289 22.5181C47.727 22.5181 47.2077 22.3852 46.7712 22.1195C46.3374 21.8511 46.0025 21.4769 45.7667 20.997C45.5335 20.5144 45.4169 19.9531 45.4169 19.3133C45.4169 18.6734 45.5335 18.1094 45.7667 17.6214C46.0025 17.1306 46.3306 16.7483 46.7509 16.4745C47.1739 16.1979 47.6673 16.0596 48.2313 16.0596C48.5566 16.0596 48.8779 16.1139 49.1952 16.2223C49.5124 16.3308 49.8012 16.507 50.0614 16.751C50.3217 16.9923 50.5292 17.3123 50.6837 17.7108C50.8383 18.1094 50.9155 18.6002 50.9155 19.1831V19.5898H46.1002V18.7601H49.9394C49.9394 18.4077 49.8689 18.0931 49.728 17.8166C49.5897 17.54 49.3917 17.3218 49.1342 17.1618C48.8793 17.0018 48.5783 16.9218 48.2313 16.9218C47.849 16.9218 47.5182 17.0167 47.2389 17.2065C46.9624 17.3936 46.7495 17.6376 46.6004 17.9386C46.4513 18.2396 46.3767 18.5622 46.3767 18.9066V19.4597C46.3767 19.9314 46.4581 20.3314 46.6207 20.6594C46.7861 20.9848 47.0152 21.2329 47.3081 21.4037C47.6009 21.5718 47.9412 21.6559 48.3289 21.6559C48.581 21.6559 48.8088 21.6206 49.0122 21.5501C49.2182 21.4769 49.3958 21.3685 49.5449 21.2248C49.6941 21.0784 49.8093 20.8967 49.8906 20.6798L50.8179 20.9401C50.7203 21.2546 50.5563 21.5312 50.3258 21.7697C50.0953 22.0056 49.8106 22.19 49.4717 22.3229C49.1328 22.453 48.7519 22.5181 48.3289 22.5181ZM53.7909 22.3879L51.8875 16.141H52.8962L54.2464 20.9238H54.3115L55.6455 16.141H56.6704L57.9881 20.9075H58.0532L59.4034 16.141H60.4121L58.5087 22.3879H57.5651L56.1986 17.5888H56.101L54.7345 22.3879H53.7909ZM65.0322 22.3879V14.0586H70.0591V14.9534H66.0408V17.7678H69.7988V18.6625H66.0408V21.4932H70.1241V22.3879H65.0322ZM71.7469 22.3879V16.141H72.6742V17.1171H72.7555C72.8857 16.7836 73.0958 16.5246 73.3859 16.3403C73.676 16.1532 74.0244 16.0596 74.4311 16.0596C74.8433 16.0596 75.1863 16.1532 75.4601 16.3403C75.7367 16.5246 75.9522 16.7836 76.1068 17.1171H76.1718C76.3318 16.7944 76.5718 16.5382 76.8917 16.3484C77.2116 16.1559 77.5953 16.0596 78.0427 16.0596C78.6012 16.0596 79.0581 16.2345 79.4133 16.5843C79.7684 16.9313 79.946 17.4722 79.946 18.207V22.3879H78.9862V18.207C78.9862 17.7461 78.8601 17.4167 78.608 17.2187C78.3558 17.0208 78.0589 16.9218 77.7173 16.9218C77.2781 16.9218 76.9378 17.0547 76.6965 17.3204C76.4552 17.5834 76.3345 17.9169 76.3345 18.3209V22.3879H75.3584V18.1094C75.3584 17.7542 75.2432 17.4682 75.0127 17.2513C74.7823 17.0317 74.4854 16.9218 74.122 16.9218C73.8726 16.9218 73.6394 16.9883 73.4225 17.1211C73.2083 17.254 73.0348 17.4384 72.9019 17.6742C72.7718 17.9074 72.7067 18.1772 72.7067 18.4836V22.3879H71.7469ZM81.701 24.7306V16.141H82.6283V17.1333H82.7421C82.8126 17.0249 82.9102 16.8866 83.035 16.7185C83.1624 16.5477 83.3441 16.3958 83.5799 16.263C83.8185 16.1274 84.1412 16.0596 84.5479 16.0596C85.0739 16.0596 85.5375 16.1911 85.9388 16.4541C86.3401 16.7171 86.6533 17.0899 86.8783 17.5726C87.1034 18.0552 87.2159 18.6246 87.2159 19.2807C87.2159 19.9423 87.1034 20.5157 86.8783 21.0011C86.6533 21.4837 86.3415 21.8579 85.9429 22.1236C85.5443 22.3866 85.0847 22.5181 84.5642 22.5181C84.1629 22.5181 83.8416 22.4517 83.6003 22.3188C83.359 22.1832 83.1732 22.03 83.0431 21.8592C82.9129 21.6857 82.8126 21.542 82.7421 21.4281H82.6608V24.7306H81.701ZM82.6445 19.2645C82.6445 19.7362 82.7137 20.1524 82.8519 20.513C82.9902 20.8709 83.1922 21.1516 83.4579 21.3549C83.7236 21.5556 84.049 21.6559 84.434 21.6559C84.8353 21.6559 85.1702 21.5501 85.4386 21.3386C85.7097 21.1244 85.9131 20.837 86.0486 20.4764C86.1869 20.1131 86.2561 19.7091 86.2561 19.2645C86.2561 18.8252 86.1883 18.4294 86.0527 18.0769C85.9198 17.7217 85.7178 17.4411 85.4467 17.235C85.1783 17.0262 84.8407 16.9218 84.434 16.9218C84.0436 16.9218 83.7155 17.0208 83.4498 17.2187C83.1841 17.414 82.9834 17.6878 82.8479 18.0403C82.7123 18.39 82.6445 18.7981 82.6445 19.2645ZM89.6398 14.0586V22.3879H88.68V14.0586H89.6398ZM93.9356 22.5181C93.3717 22.5181 92.8769 22.3839 92.4512 22.1154C92.0282 21.847 91.6974 21.4715 91.4588 20.9889C91.2229 20.5063 91.105 19.9423 91.105 19.297C91.105 18.6463 91.2229 18.0782 91.4588 17.5929C91.6974 17.1076 92.0282 16.7307 92.4512 16.4623C92.8769 16.1938 93.3717 16.0596 93.9356 16.0596C94.4996 16.0596 94.9931 16.1938 95.416 16.4623C95.8417 16.7307 96.1725 17.1076 96.4084 17.5929C96.647 18.0782 96.7663 18.6463 96.7663 19.297C96.7663 19.9423 96.647 20.5063 96.4084 20.9889C96.1725 21.4715 95.8417 21.847 95.416 22.1154C94.9931 22.3839 94.4996 22.5181 93.9356 22.5181ZM93.9356 21.6559C94.364 21.6559 94.7165 21.5461 94.9931 21.3264C95.2696 21.1068 95.4743 20.8181 95.6072 20.4602C95.74 20.1023 95.8065 19.7145 95.8065 19.297C95.8065 18.8794 95.74 18.4904 95.6072 18.1298C95.4743 17.7691 95.2696 17.4777 94.9931 17.2553C94.7165 17.033 94.364 16.9218 93.9356 16.9218C93.5072 16.9218 93.1548 17.033 92.8782 17.2553C92.6016 17.4777 92.3969 17.7691 92.2641 18.1298C92.1312 18.4904 92.0648 18.8794 92.0648 19.297C92.0648 19.7145 92.1312 20.1023 92.2641 20.4602C92.3969 20.8181 92.6016 21.1068 92.8782 21.3264C93.1548 21.5461 93.5072 21.6559 93.9356 21.6559ZM98.6259 24.7306C98.4633 24.7306 98.3182 24.717 98.1908 24.6899C98.0633 24.6655 97.9752 24.6411 97.9264 24.6167L98.1704 23.7707C98.4036 23.8304 98.6097 23.8521 98.7886 23.8358C98.9676 23.8195 99.1262 23.7396 99.2645 23.5958C99.4055 23.4549 99.5343 23.2257 99.6508 22.9085L99.8298 22.4205L97.5197 16.141H98.5609L100.285 21.119H100.35L102.075 16.141H103.116L100.464 23.299C100.345 23.6216 100.197 23.8887 100.021 24.1002C99.8447 24.3144 99.64 24.473 99.4068 24.576C99.1764 24.679 98.9161 24.7306 98.6259 24.7306ZM106.778 22.5181C106.176 22.5181 105.657 22.3852 105.221 22.1195C104.787 21.8511 104.452 21.4769 104.216 20.997C103.983 20.5144 103.866 19.9531 103.866 19.3133C103.866 18.6734 103.983 18.1094 104.216 17.6214C104.452 17.1306 104.78 16.7483 105.2 16.4745C105.623 16.1979 106.117 16.0596 106.681 16.0596C107.006 16.0596 107.327 16.1139 107.645 16.2223C107.962 16.3308 108.251 16.507 108.511 16.751C108.771 16.9923 108.979 17.3123 109.133 17.7108C109.288 18.1094 109.365 18.6002 109.365 19.1831V19.5898H104.55V18.7601H108.389C108.389 18.4077 108.318 18.0931 108.177 17.8166C108.039 17.54 107.841 17.3218 107.584 17.1618C107.329 17.0018 107.028 16.9218 106.681 16.9218C106.298 16.9218 105.968 17.0167 105.688 17.2065C105.412 17.3936 105.199 17.6376 105.05 17.9386C104.901 18.2396 104.826 18.5622 104.826 18.9066V19.4597C104.826 19.9314 104.907 20.3314 105.07 20.6594C105.236 20.9848 105.465 21.2329 105.757 21.4037C106.05 21.5718 106.391 21.6559 106.778 21.6559C107.03 21.6559 107.258 21.6206 107.462 21.5501C107.668 21.4769 107.845 21.3685 107.994 21.2248C108.143 21.0784 108.259 20.8967 108.34 20.6798L109.267 20.9401C109.17 21.2546 109.006 21.5312 108.775 21.7697C108.545 22.0056 108.26 22.19 107.921 22.3229C107.582 22.453 107.201 22.5181 106.778 22.5181ZM113.444 22.5181C112.842 22.5181 112.323 22.3852 111.887 22.1195C111.453 21.8511 111.118 21.4769 110.882 20.997C110.649 20.5144 110.532 19.9531 110.532 19.3133C110.532 18.6734 110.649 18.1094 110.882 17.6214C111.118 17.1306 111.446 16.7483 111.866 16.4745C112.289 16.1979 112.783 16.0596 113.347 16.0596C113.672 16.0596 113.993 16.1139 114.31 16.2223C114.628 16.3308 114.916 16.507 115.177 16.751C115.437 16.9923 115.644 17.3123 115.799 17.7108C115.954 18.1094 116.031 18.6002 116.031 19.1831V19.5898H111.215V18.7601H115.055C115.055 18.4077 114.984 18.0931 114.843 17.8166C114.705 17.54 114.507 17.3218 114.249 17.1618C113.995 17.0018 113.694 16.9218 113.347 16.9218C112.964 16.9218 112.634 17.0167 112.354 17.2065C112.078 17.3936 111.865 17.6376 111.716 17.9386C111.567 18.2396 111.492 18.5622 111.492 18.9066V19.4597C111.492 19.9314 111.573 20.3314 111.736 20.6594C111.901 20.9848 112.131 21.2329 112.423 21.4037C112.716 21.5718 113.056 21.6559 113.444 21.6559C113.696 21.6559 113.924 21.6206 114.127 21.5501C114.334 21.4769 114.511 21.3685 114.66 21.2248C114.809 21.0784 114.925 20.8967 115.006 20.6798L115.933 20.9401C115.836 21.2546 115.672 21.5312 115.441 21.7697C115.211 22.0056 114.926 22.19 114.587 22.3229C114.248 22.453 113.867 22.5181 113.444 22.5181Z" fill="white"/>
</svg>
