<svg width="83" height="37" viewBox="0 0 83 37" fill="none" xmlns="http://www.w3.org/2000/svg">
<rect x="1.26712" y="1.29971" width="80.9931" height="35.1764" rx="6.13542" fill="white"/>
<rect x="1.26712" y="1.29971" width="80.9931" height="35.1764" rx="6.13542" stroke="#E6E7EC" stroke-width="0.818056"/>
<path d="M20.5584 20.7624V14.1956" stroke="#0E2354" stroke-width="0.981667" stroke-linecap="round" stroke-linejoin="round"/>
<path d="M22.1488 19.1656L20.5585 20.7625L18.9682 19.1656" stroke="#0E2354" stroke-width="0.981667" stroke-linecap="round" stroke-linejoin="round"/>
<path d="M23.3597 16.4343H23.9373C25.1971 16.4343 26.218 17.4259 26.218 18.6502V21.587C26.218 22.8077 25.1996 23.7968 23.9429 23.7968H17.0465C15.7867 23.7968 14.7652 22.8047 14.7652 21.581L14.7652 18.6436C14.7652 17.4235 15.7842 16.4343 17.0403 16.4343H17.6235" stroke="#0E2354" stroke-width="0.981667" stroke-linecap="round" stroke-linejoin="round"/>
<path d="M34.5889 22.3879V14.0586H39.6158V14.9534H35.5976V17.7678H39.3555V18.6625H35.5976V21.4932H39.6809V22.3879H34.5889ZM42.0194 16.141L43.5161 18.6951L45.0128 16.141H46.119L44.1017 19.2645L46.119 22.3879H45.0128L43.5161 19.964L42.0194 22.3879H40.9132L42.8979 19.2645L40.9132 16.141H42.0194ZM47.4886 24.7306V16.141H48.4159V17.1333H48.5297C48.6002 17.0249 48.6978 16.8866 48.8226 16.7185C48.95 16.5477 49.1317 16.3958 49.3675 16.263C49.6061 16.1274 49.9288 16.0596 50.3355 16.0596C50.8615 16.0596 51.3251 16.1911 51.7264 16.4541C52.1277 16.7171 52.4409 17.0899 52.6659 17.5726C52.891 18.0552 53.0035 18.6246 53.0035 19.2807C53.0035 19.9423 52.891 20.5157 52.6659 21.0011C52.4409 21.4837 52.1291 21.8579 51.7305 22.1236C51.3319 22.3866 50.8723 22.5181 50.3518 22.5181C49.9505 22.5181 49.6292 22.4517 49.3879 22.3188C49.1466 22.1832 48.9608 22.03 48.8307 21.8592C48.7006 21.6857 48.6002 21.542 48.5297 21.4281H48.4484V24.7306H47.4886ZM48.4321 19.2645C48.4321 19.7362 48.5013 20.1524 48.6395 20.513C48.7778 20.8709 48.9798 21.1516 49.2455 21.3549C49.5112 21.5556 49.8366 21.6559 50.2216 21.6559C50.6229 21.6559 50.9578 21.5501 51.2262 21.3386C51.4973 21.1244 51.7007 20.837 51.8362 20.4764C51.9745 20.1131 52.0437 19.7091 52.0437 19.2645C52.0437 18.8252 51.9759 18.4294 51.8403 18.0769C51.7074 17.7217 51.5055 17.4411 51.2343 17.235C50.9659 17.0262 50.6283 16.9218 50.2216 16.9218C49.8312 16.9218 49.5031 17.0208 49.2374 17.2187C48.9717 17.414 48.771 17.6878 48.6355 18.0403C48.4999 18.39 48.4321 18.7981 48.4321 19.2645ZM57.0054 22.5181C56.4415 22.5181 55.9467 22.3839 55.521 22.1154C55.098 21.847 54.7672 21.4715 54.5286 20.9889C54.2927 20.5063 54.1748 19.9423 54.1748 19.297C54.1748 18.6463 54.2927 18.0782 54.5286 17.5929C54.7672 17.1076 55.098 16.7307 55.521 16.4623C55.9467 16.1938 56.4415 16.0596 57.0054 16.0596C57.5694 16.0596 58.0629 16.1938 58.4858 16.4623C58.9115 16.7307 59.2423 17.1076 59.4782 17.5929C59.7168 18.0782 59.8361 18.6463 59.8361 19.297C59.8361 19.9423 59.7168 20.5063 59.4782 20.9889C59.2423 21.4715 58.9115 21.847 58.4858 22.1154C58.0629 22.3839 57.5694 22.5181 57.0054 22.5181ZM57.0054 21.6559C57.4338 21.6559 57.7863 21.5461 58.0629 21.3264C58.3394 21.1068 58.5441 20.8181 58.677 20.4602C58.8099 20.1023 58.8763 19.7145 58.8763 19.297C58.8763 18.8794 58.8099 18.4904 58.677 18.1298C58.5441 17.7691 58.3394 17.4777 58.0629 17.2553C57.7863 17.033 57.4338 16.9218 57.0054 16.9218C56.577 16.9218 56.2246 17.033 55.948 17.2553C55.6715 17.4777 55.4667 17.7691 55.3339 18.1298C55.201 18.4904 55.1346 18.8794 55.1346 19.297C55.1346 19.7145 55.201 20.1023 55.3339 20.4602C55.4667 20.8181 55.6715 21.1068 55.948 21.3264C56.2246 21.5461 56.577 21.6559 57.0054 21.6559ZM61.3013 22.3879V16.141H62.2285V17.0845H62.2936C62.4075 16.7754 62.6135 16.5246 62.9118 16.3321C63.21 16.1396 63.5463 16.0434 63.9204 16.0434C63.9909 16.0434 64.079 16.0447 64.1848 16.0474C64.2905 16.0501 64.3705 16.0542 64.4247 16.0596V17.0357C64.3922 17.0276 64.3176 17.0154 64.201 16.9991C64.0872 16.9801 63.9665 16.9706 63.8391 16.9706C63.5354 16.9706 63.2643 17.0344 63.0257 17.1618C62.7898 17.2865 62.6027 17.46 62.4644 17.6824C62.3289 17.902 62.2611 18.1528 62.2611 18.4348V22.3879H61.3013ZM68.6707 16.141V16.9544H65.4334V16.141H68.6707ZM66.3769 14.6443H67.3367V20.5984C67.3367 20.8696 67.3761 21.0729 67.4547 21.2085C67.536 21.3414 67.6391 21.4308 67.7638 21.4769C67.8912 21.5203 68.0254 21.542 68.1664 21.542C68.2722 21.542 68.3589 21.5366 68.4267 21.5257C68.4945 21.5122 68.5487 21.5013 68.5894 21.4932L68.7846 22.3554C68.7195 22.3798 68.6287 22.4042 68.5121 22.4286C68.3955 22.4557 68.2478 22.4693 68.0688 22.4693C67.7977 22.4693 67.532 22.411 67.2717 22.2944C67.0141 22.1778 66.7999 22.0002 66.6291 21.7616C66.461 21.523 66.3769 21.2221 66.3769 20.8587V14.6443Z" fill="#0E2354"/>
</svg>
