<svg width="34" height="34" viewBox="0 0 34 34" fill="none" xmlns="http://www.w3.org/2000/svg">
<rect x="0.971085" y="1.14627" width="31.9042" height="31.9042" rx="6.13542" stroke="#EFEFEF" stroke-width="0.818056"/>
<path d="M23.7403 14.726V11.631C23.7403 10.6698 23.304 10.2812 22.2201 10.2812H19.466C18.382 10.2812 17.9457 10.6698 17.9457 11.631V14.7192C17.9457 15.6872 18.382 16.069 19.466 16.069H22.2201C23.304 16.0758 23.7403 15.6872 23.7403 14.726Z" stroke="#858585" stroke-width="1.22708" stroke-linecap="round" stroke-linejoin="round"/>
<path d="M23.7403 22.3953V19.6411C23.7403 18.5572 23.304 18.1209 22.2201 18.1209H19.466C18.382 18.1209 17.9457 18.5572 17.9457 19.6411V22.3953C17.9457 23.4792 18.382 23.9155 19.466 23.9155H22.2201C23.304 23.9155 23.7403 23.4792 23.7403 22.3953Z" stroke="#858585" stroke-width="1.22708" stroke-linecap="round" stroke-linejoin="round"/>
<path d="M15.9006 14.726V11.631C15.9006 10.6698 15.4643 10.2812 14.3804 10.2812H11.6263C10.5423 10.2812 10.106 10.6698 10.106 11.631V14.7192C10.106 15.6872 10.5423 16.069 11.6263 16.069H14.3804C15.4643 16.0758 15.9006 15.6872 15.9006 14.726Z" stroke="#858585" stroke-width="1.22708" stroke-linecap="round" stroke-linejoin="round"/>
<path d="M15.9006 22.3953V19.6411C15.9006 18.5572 15.4643 18.1209 14.3804 18.1209H11.6263C10.5423 18.1209 10.106 18.5572 10.106 19.6411V22.3953C10.106 23.4792 10.5423 23.9155 11.6263 23.9155H14.3804C15.4643 23.9155 15.9006 23.4792 15.9006 22.3953Z" stroke="#858585" stroke-width="1.22708" stroke-linecap="round" stroke-linejoin="round"/>
</svg>
